<svg width="33" height="24" viewBox="0 0 33 24" fill="none" xmlns="http://www.w3.org/2000/svg">
<g clip-path="url(#clip0_77_81)">
<path d="M21.8182 13.6364C21.8182 13.4773 21.767 13.3466 21.6648 13.2443C21.5625 13.142 21.4318 13.0909 21.2727 13.0909H17.4545V7.09091C17.4545 6.94318 17.4006 6.81534 17.2926 6.70739C17.1847 6.59943 17.0568 6.54545 16.9091 6.54545H13.6364C13.4886 6.54545 13.3608 6.59943 13.2528 6.70739C13.1449 6.81534 13.0909 6.94318 13.0909 7.09091V13.0909H9.27273C9.125 13.0909 8.99716 13.1449 8.8892 13.2528C8.78125 13.3608 8.72727 13.4886 8.72727 13.6364C8.72727 13.7955 8.77841 13.9261 8.88068 14.0284L14.8807 20.0284C14.983 20.1307 15.1136 20.1818 15.2727 20.1818C15.4318 20.1818 15.5625 20.1307 15.6648 20.0284L21.6477 14.0455C21.7614 13.9091 21.8182 13.7727 21.8182 13.6364ZM32.7273 17.4545C32.7273 19.2614 32.0881 20.804 30.8097 22.0824C29.5312 23.3608 27.9886 24 26.1818 24H7.63636C5.53409 24 3.7358 23.2528 2.24148 21.7585C0.747159 20.2642 0 18.4659 0 16.3636C0 14.8864 0.397727 13.5227 1.19318 12.2727C1.98864 11.0227 3.05682 10.0852 4.39773 9.46023C4.375 9.11932 4.36364 8.875 4.36364 8.72727C4.36364 6.31818 5.21591 4.26136 6.92045 2.55682C8.625 0.852273 10.6818 0 13.0909 0C14.8636 0 16.4858 0.494318 17.9574 1.48295C19.429 2.47159 20.5 3.78409 21.1705 5.42045C21.9773 4.71591 22.9205 4.36364 24 4.36364C25.2045 4.36364 26.233 4.78977 27.0852 5.64205C27.9375 6.49432 28.3636 7.52273 28.3636 8.72727C28.3636 9.59091 28.1307 10.375 27.6648 11.0795C29.142 11.4318 30.3551 12.2017 31.304 13.3892C32.2528 14.5767 32.7273 15.9318 32.7273 17.4545Z" fill="white"/>
</g>
<defs>
<clipPath id="clip0_77_81">
<rect width="32.7273" height="24" fill="white"/>
</clipPath>
</defs>
</svg>
