<svg width="32" height="32" viewBox="0 0 32 32" fill="none" xmlns="http://www.w3.org/2000/svg">
<path d="M16 11.8344C13.7062 11.8344 11.8344 13.7062 11.8344 16C11.8344 18.2937 13.7062 20.1656 16 20.1656C18.2937 20.1656 20.1656 18.2937 20.1656 16C20.1656 13.7062 18.2937 11.8344 16 11.8344ZM28.4937 16C28.4937 14.275 28.5094 12.5656 28.4125 10.8437C28.3156 8.84373 27.8594 7.06873 26.3969 5.60623C24.9312 4.1406 23.1594 3.68748 21.1594 3.5906C19.4344 3.49373 17.725 3.50935 16.0031 3.50935C14.2781 3.50935 12.5687 3.49373 10.8469 3.5906C8.84687 3.68748 7.07187 4.14373 5.60937 5.60623C4.14375 7.07185 3.69062 8.84373 3.59375 10.8437C3.49687 12.5687 3.5125 14.2781 3.5125 16C3.5125 17.7219 3.49687 19.4344 3.59375 21.1562C3.69062 23.1562 4.14687 24.9312 5.60937 26.3937C7.075 27.8594 8.84687 28.3125 10.8469 28.4094C12.5719 28.5062 14.2812 28.4906 16.0031 28.4906C17.7281 28.4906 19.4375 28.5062 21.1594 28.4094C23.1594 28.3125 24.9344 27.8562 26.3969 26.3937C27.8625 24.9281 28.3156 23.1562 28.4125 21.1562C28.5125 19.4344 28.4937 17.725 28.4937 16ZM16 22.4094C12.4531 22.4094 9.59062 19.5469 9.59062 16C9.59062 12.4531 12.4531 9.5906 16 9.5906C19.5469 9.5906 22.4094 12.4531 22.4094 16C22.4094 19.5469 19.5469 22.4094 16 22.4094ZM22.6719 10.825C21.8437 10.825 21.175 10.1562 21.175 9.3281C21.175 8.49998 21.8437 7.83123 22.6719 7.83123C23.5 7.83123 24.1687 8.49998 24.1687 9.3281C24.169 9.52474 24.1304 9.7195 24.0553 9.90122C23.9802 10.0829 23.8699 10.2481 23.7309 10.3871C23.5918 10.5261 23.4267 10.6364 23.245 10.7115C23.0633 10.7867 22.8685 10.8252 22.6719 10.825Z" fill="white"/>
</svg>
