<svg width="32" height="32" viewBox="0 0 32 32" fill="none" xmlns="http://www.w3.org/2000/svg">
<path d="M26.88 9.12C23.04 3.2 15.2 1.44 9.12 5.12C3.2 8.8 1.28 16.8 5.12 22.72L5.44 23.2L4.16 28L8.96 26.72L9.44 27.04C11.52 28.16 13.76 28.8 16 28.8C18.4 28.8 20.8 28.16 22.88 26.88C28.8 23.04 30.56 15.2 26.88 9.12ZM23.52 21.44C22.88 22.4 22.08 23.04 20.96 23.2C20.32 23.2 19.52 23.52 16.32 22.24C13.6 20.96 11.36 18.88 9.76 16.48C8.8 15.36 8.32 13.92 8.16 12.48C8.16 11.2 8.64 10.08 9.44 9.28C9.76 8.96 10.08 8.8 10.4 8.8H11.2C11.52 8.8 11.84 8.8 12 9.44C12.32 10.24 13.12 12.16 13.12 12.32C13.28 12.48 13.28 12.8 13.12 12.96C13.28 13.28 13.12 13.6 12.96 13.76C12.8 13.92 12.64 14.24 12.48 14.4C12.16 14.56 12 14.88 12.16 15.2C12.8 16.16 13.6 17.12 14.4 17.92C15.36 18.72 16.32 19.36 17.44 19.84C17.76 20 18.08 20 18.24 19.68C18.4 19.36 19.2 18.56 19.52 18.24C19.84 17.92 20 17.92 20.32 18.08L22.88 19.36C23.2 19.52 23.52 19.68 23.68 19.84C23.84 20.32 23.84 20.96 23.52 21.44Z" fill="white"/>
</svg>
