<svg width="50" height="50" viewBox="0 0 50 50" fill="none" xmlns="http://www.w3.org/2000/svg">
<g clip-path="url(#clip0_179_12)">
<path d="M26.0669 27.5314C26.156 25.8626 26.9778 24.3892 28.206 23.3485C29.503 22.2754 31.1366 21.6934 32.82 21.7048C34.5872 21.7048 36.2138 22.3314 37.4263 23.3485C38.656 24.3907 39.4685 25.8626 39.5653 27.5314C39.6544 29.2392 38.9716 30.836 37.7591 32.0142C36.4299 33.2838 34.658 33.985 32.82 33.9689C30.9767 33.986 29.1991 33.2849 27.8638 32.0142C26.6591 30.8345 25.9685 29.2392 26.0653 27.5314H26.0669ZM15.3169 30.9001C15.3231 31.5517 15.5356 32.8204 15.8435 33.8126C16.5178 35.9447 17.6512 37.9031 19.1638 39.5501C20.7839 41.3327 22.7604 42.7551 24.9653 43.7251C27.3684 44.7813 29.967 45.3195 32.5919 45.3048C35.2179 45.3128 37.816 44.7671 40.2169 43.7032C42.4201 42.7224 44.3956 41.2949 46.0185 39.511C47.5251 37.8544 48.6551 35.8912 49.331 33.7564C49.982 31.6874 50.1598 29.4986 49.8513 27.3517C49.5603 25.2956 48.8389 23.324 47.7341 21.5657C46.7159 19.9256 45.4088 18.4835 43.8763 17.3095L28.22 5.27978C27.195 4.49073 25.47 4.49854 24.3466 5.27978C23.2075 6.07823 23.0763 7.39698 24.0841 8.23448L30.5966 13.5329L10.7153 13.5579C9.07001 13.5579 7.50126 14.6314 7.18251 16.0001C6.86531 17.3829 7.97156 18.5314 9.68096 18.5376L19.7481 18.5235L1.71531 32.3564C0.0231229 33.6501 -0.522189 35.8142 0.544996 37.1751C1.62625 38.5673 3.93094 38.5673 5.64656 37.1829L15.445 29.1657C15.445 29.1657 15.2997 30.2485 15.3153 30.8985L15.3169 30.9001ZM40.5013 34.5204C38.4763 36.5814 35.6513 37.7517 32.5935 37.7517C29.5325 37.7595 26.6997 36.6032 24.6825 34.5532C23.7285 33.5926 22.9925 32.4378 22.5247 31.1673C22.0966 29.9733 21.9276 28.7019 22.0289 27.4376C22.1302 26.1733 22.4995 24.945 23.1122 23.8345C23.7239 22.7389 24.5384 21.7696 25.5122 20.9782C27.4747 19.3845 29.9731 18.522 32.5935 18.5142C35.2044 18.5142 37.7044 19.3689 39.6638 20.9626C40.642 21.747 41.4573 22.7151 42.0638 23.8126C42.6747 24.9017 43.0497 26.1142 43.156 27.3689C43.2693 28.6457 43.1002 29.9319 42.6606 31.136C42.1896 32.405 41.4541 33.5591 40.5028 34.522L40.5013 34.5204Z" fill="white"/>
</g>
<defs>
<clipPath id="clip0_179_12">
<rect width="50" height="50" fill="white"/>
</clipPath>
</defs>
</svg>
