<svg width="51" height="50" viewBox="0 0 51 50" fill="none" xmlns="http://www.w3.org/2000/svg">
<g clip-path="url(#clip0_92_83)">
<path d="M16.5684 0H21.9392V2.24583H18.8142V4.49167H21.9392V6.7375H16.5684V0ZM23.0121 0H28.385V1.95417H25.26V2.34375H28.385V6.83542H23.0121V4.78542H26.1371V4.39375H23.0121V0ZM29.46 0H34.8288V1.95417H31.7038V2.34375H34.8288V6.83542H29.46V4.78542H32.585V4.39375H29.46V0Z" fill="white"/>
<path fill-rule="evenodd" clip-rule="evenodd" d="M25.9202 50.0001L11.4535 45.9834L7.18896 9.82715H44.689L40.4265 45.9792L25.9202 50.0001ZM15.6202 26.1938L16.0181 30.6272H31.3869L30.8723 36.3772L25.9265 37.7147H25.9223L20.9848 36.3813L20.6681 32.8459H16.216L16.8369 39.8084L25.9202 42.3292L35.0181 39.8084L36.1265 27.3834L36.2348 26.1938L37.0348 17.2167H14.8223L15.2265 21.6521H32.1765L31.7723 26.1938H15.6202V26.1938Z" fill="white"/>
</g>
<defs>
<clipPath id="clip0_92_83">
<rect width="50" height="50" fill="white" transform="translate(0.938965)"/>
</clipPath>
</defs>
</svg>
