<svg width="50" height="50" viewBox="0 0 50 50" fill="none" xmlns="http://www.w3.org/2000/svg">
<path d="M31.9417 18.0585C33.7464 18.0043 35.459 17.2493 36.7164 15.9536C37.9739 14.6579 38.6771 12.9234 38.6771 11.1179C38.6771 9.31234 37.9739 7.57781 36.7164 6.2821C35.459 4.98639 33.7464 4.23141 31.9417 4.17725H18.0583C16.2536 4.23141 14.541 4.98639 13.2836 6.2821C12.0262 7.57781 11.3229 9.31234 11.3229 11.1179C11.3229 12.9234 12.0262 14.6579 13.2836 15.9536C14.541 17.2493 16.2536 18.0043 18.0583 18.0585C16.2378 18.09 14.5026 18.8354 13.2263 20.1339C11.95 21.4325 11.2349 23.1804 11.2349 25.0012C11.2349 26.822 11.95 28.5699 13.2263 29.8685C14.5026 31.167 16.2378 31.9124 18.0583 31.9439C16.2467 31.9883 14.5243 32.7391 13.2587 34.0361C11.9931 35.3331 11.2847 37.0734 11.2847 38.8856C11.2847 40.6977 11.9931 42.4381 13.2587 43.735C14.5243 45.032 16.2467 45.7829 18.0583 45.8272C19.8994 45.8261 21.6647 45.0941 22.9664 43.7921C24.268 42.4901 24.9995 40.7246 25 38.8835V18.0585H31.9417Z" fill="white"/>
<path d="M31.9417 31.9414C35.7754 31.9414 38.8833 28.8335 38.8833 24.9998C38.8833 21.166 35.7754 18.0581 31.9417 18.0581C28.1079 18.0581 25 21.166 25 24.9998C25 28.8335 28.1079 31.9414 31.9417 31.9414Z" fill="white"/>
</svg>
