<svg width="51" height="50" viewBox="0 0 51 50" fill="none" xmlns="http://www.w3.org/2000/svg">
<path d="M11.3081 0H13.5623V2.22708H15.6248V0H17.8789V6.74167H15.6248V4.48542H13.5623V6.74167H11.3102V0H11.3081ZM20.8414 2.23542H18.8581V0H25.081V2.23542H23.0956V6.74167H20.8414V2.23542V2.23542ZM26.0685 0H28.4185L29.8644 2.36875L31.3081 0H33.6581V6.74167H31.4144V3.4L29.8644 5.79792H29.8248L28.2727 3.40208V6.74167H26.0685V0V0ZM34.7789 0H37.0352V4.51458H40.2019V6.74375H34.7789V0V0Z" fill="white"/>
<path fill-rule="evenodd" clip-rule="evenodd" d="M11.2371 45.9834L6.97461 9.82715H44.4746L40.21 45.9792L25.7038 50.0001L11.2371 45.9834ZM19.8559 26.1917L19.4517 21.6501H36.4204L36.8163 17.2167H14.6079L15.8038 30.6272H31.1725L30.6579 36.3772L25.7121 37.7147H25.7079L20.7704 36.3813L20.4538 32.8459H15.9996L16.6204 39.8084L25.7038 42.3292L34.8017 39.8084L35.91 27.3834L36.0184 26.1938H19.8559V26.1917Z" fill="white"/>
</svg>
