<svg width="51" height="50" viewBox="0 0 51 50" fill="none" xmlns="http://www.w3.org/2000/svg">
<path d="M3.27832 3.125V46.875H47.0283V3.125H3.27832ZM27.0877 37.2453C27.0877 41.5031 24.5877 43.4469 20.9455 43.4469C17.6549 43.4469 15.7502 41.7484 14.7736 39.6875L18.1236 37.6656C18.7689 38.8078 19.3549 39.775 20.7705 39.775C22.1174 39.775 22.9768 39.2469 22.9768 37.1875V23.2125H27.0877V37.2453ZM36.8127 43.4469C32.9939 43.4469 30.5236 41.6313 29.3221 39.2469L32.6721 37.3141C33.5518 38.75 34.7033 39.8141 36.7252 39.8141C38.4236 39.8141 39.5189 38.9641 39.5189 37.7828C39.5189 36.3766 38.4049 35.8781 36.5205 35.0484L35.4955 34.6094C32.5268 33.35 30.5643 31.7578 30.5643 28.4078C30.5643 25.3219 32.9174 22.9781 36.5799 22.9781C39.1971 22.9781 41.0721 23.8859 42.4205 26.2688L39.2174 28.3203C38.5143 27.0609 37.7518 26.5625 36.5705 26.5625C35.3705 26.5625 34.608 27.325 34.608 28.3203C34.608 29.5516 35.3705 30.0484 37.1377 30.8203L38.1627 31.2594C41.6596 32.7531 43.6221 34.2875 43.6221 37.7234C43.6221 41.4156 40.7111 43.4453 36.8143 43.4453L36.8127 43.4469Z" fill="white"/>
</svg>
