<svg width="50" height="50" viewBox="0 0 50 50" fill="none" xmlns="http://www.w3.org/2000/svg">
<path d="M50 24.3522C50 21.0397 45.8521 17.9002 39.4916 15.9543C40.9604 9.47307 40.3083 4.31475 37.4333 2.66266C36.7367 2.2725 35.9483 2.07611 35.15 2.09391V4.36475C35.6188 4.36475 35.9958 4.4585 36.3125 4.63141C37.6979 5.42722 38.3 8.45222 37.8312 12.346C37.7187 13.3043 37.5354 14.3127 37.3104 15.3418C35.1805 14.8286 33.0187 14.4576 30.8396 14.2314C29.5413 12.4404 28.125 10.738 26.6 9.13557C29.9229 6.04807 33.0416 4.35641 35.1625 4.35641V2.0835C32.3583 2.0835 28.6896 4.08141 24.9792 7.54597C21.2709 4.10433 17.6 2.12516 14.7979 2.12516V4.396C16.9084 4.396 20.0375 6.07932 23.3604 9.14597C21.9333 10.646 20.5062 12.346 19.15 14.2314C16.9663 14.4551 14.8007 14.8296 12.6687 15.3522C12.4434 14.3768 12.2661 13.3909 12.1375 12.3981C11.6583 8.50222 12.25 5.47722 13.6271 4.67308C13.9312 4.48975 14.3292 4.40641 14.7979 4.40641V2.13558C13.9438 2.13558 13.1666 2.31891 12.4958 2.70433C9.63125 4.35641 8.9896 9.50222 10.4667 15.9647C4.12709 17.9231 0 21.0502 0 24.3522C0 27.6647 4.14792 30.8043 10.5084 32.7481C9.0396 39.2314 9.69165 44.3897 12.5667 46.0397C13.2292 46.4272 14.0041 46.6106 14.8583 46.6106C17.6625 46.6106 21.3313 44.6127 25.0417 41.1481C28.75 44.5918 32.4188 46.5689 35.2229 46.5689C36.0273 46.5859 36.8218 46.3889 37.525 45.9981C40.3896 44.3481 41.0312 39.2022 39.5541 32.7397C45.8729 30.7939 50 27.6543 50 24.3522ZM36.7291 17.5543C36.3333 18.9165 35.8744 20.2596 35.3541 21.5793C34.5024 19.9226 33.5672 18.3101 32.5521 16.7481C34 16.9627 35.3959 17.2272 36.7313 17.5543H36.7291ZM32.0625 28.4085C31.2994 29.7407 30.48 31.0398 29.6063 32.3022C26.5485 32.5718 23.473 32.5752 20.4146 32.3127C18.6603 29.8068 17.1261 27.1538 15.8292 24.3835C17.1242 21.6066 18.6518 18.9444 20.3958 16.4252C23.4529 16.1551 26.5276 16.1509 29.5854 16.4127C30.4312 17.6252 31.2584 18.921 32.0521 20.2877C32.8271 21.621 33.5313 22.9752 34.1729 24.3418C33.5242 25.7251 32.8201 27.0817 32.0625 28.4085ZM35.3541 27.0835C35.9041 28.4481 36.375 29.8147 36.7604 31.1397C35.4271 31.4668 34.0187 31.7418 32.5625 31.9543C33.5734 30.3781 34.5051 28.7525 35.3541 27.0835ZM25.0208 37.9585C24.0729 36.9793 23.125 35.8897 22.1875 34.696C23.1041 34.7377 24.0416 34.7689 24.9896 34.7689C25.9479 34.7689 26.8959 34.7481 27.8229 34.696C26.9063 35.8897 25.9583 36.9793 25.0208 37.9585ZM17.4375 31.9543C16.0328 31.7508 14.6383 31.4825 13.2584 31.1502C13.6354 29.8356 14.1042 28.4793 14.6334 27.1252C15.0521 27.9377 15.4916 28.7543 15.9708 29.571C16.45 30.3856 16.9375 31.1814 17.4375 31.9543ZM24.9688 10.746C25.9166 11.7252 26.8646 12.8147 27.8021 14.0085C26.8854 13.9668 25.9479 13.9356 25 13.9356C24.0416 13.9356 23.0938 13.9564 22.1667 14.0085C23.0834 12.8147 24.0312 11.7252 24.9688 10.746ZM17.4271 16.7502C16.4164 18.3229 15.4847 19.9451 14.6354 21.6106C14.1004 20.2824 13.6311 18.9287 13.2291 17.5543C14.5625 17.2377 15.9708 16.9627 17.4271 16.7502ZM8.20415 29.5085C4.59584 27.971 2.2625 25.9522 2.2625 24.3522C2.2625 22.7522 4.59584 20.7231 8.20415 19.196C9.07915 18.8189 10.0375 18.4814 11.0271 18.1668C11.6083 20.1627 12.3729 22.2418 13.3188 24.3731C12.4258 26.3776 11.6705 28.4408 11.0583 30.5481C10.0905 30.2484 9.138 29.9015 8.20415 29.5085ZM13.6875 44.071C12.3021 43.2793 11.7 40.2502 12.1687 36.3585C12.2812 35.4002 12.4646 34.3897 12.6896 33.3606C14.6854 33.8502 16.8667 34.2272 19.1604 34.4731C20.4587 36.2641 21.875 37.9665 23.4 39.5689C20.0771 42.6564 16.9583 44.3481 14.8375 44.3481C14.4374 44.3524 14.0423 44.258 13.6875 44.0731V44.071ZM37.8625 36.3064C38.3416 40.2002 37.75 43.2272 36.3729 44.0314C36.0687 44.2147 35.6708 44.296 35.2021 44.296C33.0916 44.296 29.9625 42.6147 26.6396 39.546C28.1582 37.9503 29.565 36.2518 30.85 34.4627C33.0337 34.239 35.1992 33.8645 37.3312 33.3418C37.5666 34.371 37.7479 35.3585 37.8625 36.3064ZM41.7854 29.5085C40.9104 29.8856 39.9521 30.2231 38.9625 30.5377C38.3396 28.4196 37.5739 26.3461 36.6708 24.3314C37.6083 22.2127 38.3604 20.1439 38.9313 18.1564C39.9022 18.4571 40.8581 18.804 41.7958 19.196C45.4041 20.7335 47.7375 22.7522 47.7375 24.3522C47.7271 25.9522 45.3938 27.9814 41.7854 29.5085Z" fill="white"/>
<path d="M24.9899 29.0105C26.2253 29.0105 27.4102 28.5197 28.2838 27.6461C29.1574 26.7725 29.6482 25.5876 29.6482 24.3522C29.6482 23.1167 29.1574 21.9318 28.2838 21.0582C27.4102 20.1846 26.2253 19.6938 24.9899 19.6938C23.7544 19.6938 22.5695 20.1846 21.6959 21.0582C20.8223 21.9318 20.3315 23.1167 20.3315 24.3522C20.3315 25.5876 20.8223 26.7725 21.6959 27.6461C22.5695 28.5197 23.7544 29.0105 24.9899 29.0105Z" fill="white"/>
</svg>
