<svg width="30" height="30" viewBox="0 0 30 30" fill="none" xmlns="http://www.w3.org/2000/svg">
<rect x="22.5" y="23.75" width="15" height="17.5" transform="rotate(-180 22.5 23.75)" fill="#111111"/>
<path fill-rule="evenodd" clip-rule="evenodd" d="M28.75 15C28.75 7.40625 22.5937 1.25 15 1.25C7.40625 1.25 1.25 7.40625 1.25 15C1.25 22.5937 7.40625 28.75 15 28.75C22.5937 28.75 28.75 22.5937 28.75 15ZM17.7587 10.8837C17.9864 10.648 18.1124 10.3322 18.1096 10.0045C18.1067 9.67675 17.9753 9.36324 17.7435 9.13148C17.5118 8.89972 17.1982 8.76826 16.8705 8.76541C16.5428 8.76256 16.227 8.88855 15.9913 9.11625L10.9913 14.1163C10.7569 14.3507 10.6253 14.6685 10.6253 15C10.6253 15.3315 10.7569 15.6493 10.9913 15.8837L15.9913 20.8838C16.227 21.1114 16.5428 21.2374 16.8705 21.2346C17.1982 21.2317 17.5118 21.1003 17.7435 20.8685C17.9753 20.6368 18.1067 20.3232 18.1096 19.9955C18.1124 19.6678 17.9864 19.352 17.7587 19.1163L13.6425 15L17.7587 10.8837Z" fill="white"/>
</svg>
