<svg width="32" height="32" viewBox="0 0 32 32" fill="none" xmlns="http://www.w3.org/2000/svg">
<path d="M16 0C7.16343 0 0 7.16343 0 16C0 24.8366 7.16343 32 16 32C24.8366 32 32 24.8366 32 16C32 7.16343 24.8366 0 16 0ZM8.26374 18.4615C6.90644 18.4615 5.8022 17.3573 5.8022 16C5.8022 14.6427 6.90644 13.5385 8.26374 13.5385C9.62103 13.5385 10.7253 14.6427 10.7253 16C10.7253 17.3573 9.62103 18.4615 8.26374 18.4615ZM16 18.4615C14.6427 18.4615 13.5385 17.3573 13.5385 16C13.5385 14.6427 14.6427 13.5385 16 13.5385C17.3573 13.5385 18.4615 14.6427 18.4615 16C18.4615 17.3573 17.3573 18.4615 16 18.4615ZM23.7363 18.4615C22.379 18.4615 21.2747 17.3573 21.2747 16C21.2747 14.6427 22.379 13.5385 23.7363 13.5385C25.0936 13.5385 26.1978 14.6427 26.1978 16C26.1978 17.3573 25.0936 18.4615 23.7363 18.4615Z" fill="black"/>
</svg>
